<svg width="234" height="224" viewBox="0 0 234 224" fill="none" xmlns="http://www.w3.org/2000/svg">
<rect x="5" width="224" height="224" rx="100" fill="#7886B7"/>
<circle cx="116.5" cy="111.5" r="96.5" fill="#86A4F0"/>
<path d="M75.5894 126.351H95.8066V134H66.0679V87.7891H75.5894V126.351ZM99.2661 116.512C99.2661 113.106 99.922 110.069 101.234 107.403C102.546 104.737 104.429 102.674 106.883 101.214C109.359 99.7544 112.226 99.0244 115.484 99.0244C120.118 99.0244 123.895 100.442 126.815 103.277C129.756 106.113 131.396 109.964 131.734 114.83L131.798 117.179C131.798 122.447 130.327 126.679 127.386 129.874C124.445 133.048 120.499 134.635 115.548 134.635C110.597 134.635 106.64 133.048 103.678 129.874C100.737 126.7 99.2661 122.384 99.2661 116.925V116.512ZM108.438 117.179C108.438 120.437 109.052 122.934 110.279 124.669C111.507 126.383 113.263 127.24 115.548 127.24C117.77 127.24 119.505 126.393 120.753 124.701C122.001 122.987 122.625 120.257 122.625 116.512C122.625 113.317 122.001 110.842 120.753 109.085C119.505 107.329 117.748 106.451 115.484 106.451C113.242 106.451 111.507 107.329 110.279 109.085C109.052 110.82 108.438 113.518 108.438 117.179ZM136.114 116.576C136.114 111.307 137.363 107.065 139.859 103.849C142.377 100.632 145.763 99.0244 150.016 99.0244C153.782 99.0244 156.712 100.315 158.807 102.896L159.188 99.6592H167.503V132.857C167.503 135.862 166.816 138.475 165.44 140.697C164.086 142.918 162.171 144.611 159.696 145.775C157.22 146.939 154.321 147.521 151 147.521C148.482 147.521 146.027 147.013 143.636 145.997C141.245 145.003 139.436 143.712 138.209 142.125L142.271 136.539C144.557 139.099 147.328 140.379 150.587 140.379C153.02 140.379 154.914 139.723 156.268 138.412C157.622 137.121 158.299 135.28 158.299 132.889V131.048C156.183 133.439 153.401 134.635 149.952 134.635C145.826 134.635 142.483 133.027 139.923 129.811C137.384 126.573 136.114 122.289 136.114 116.957V116.576ZM145.287 117.242C145.287 120.353 145.911 122.796 147.159 124.574C148.408 126.33 150.121 127.208 152.301 127.208C155.094 127.208 157.093 126.161 158.299 124.066V109.625C157.072 107.53 155.094 106.483 152.364 106.483C150.164 106.483 148.429 107.382 147.159 109.181C145.911 110.979 145.287 113.666 145.287 117.242Z" fill="white"/>
</svg>
