<svg width="285" height="31" viewBox="0 0 285 31" fill="none" xmlns="http://www.w3.org/2000/svg">
<g clip-path="url(#clip0)">
<ellipse cx="165" cy="18" rx="5" ry="8" fill="#86A4F0"/>
<path d="M0.109375 29V6.25H7.10938C9.10938 6.25 10.8958 6.70312 12.4688 7.60938C14.0521 8.50521 15.2865 9.78646 16.1719 11.4531C17.0573 13.1094 17.5 14.9948 17.5 17.1094V18.1562C17.5 20.2708 17.0625 22.151 16.1875 23.7969C15.3229 25.4427 14.099 26.7188 12.5156 27.625C10.9323 28.5312 9.14583 28.9896 7.15625 29H0.109375ZM4.79688 10.0469V25.2344H7.0625C8.89583 25.2344 10.2969 24.6354 11.2656 23.4375C12.2344 22.2396 12.7292 20.526 12.75 18.2969V17.0938C12.75 14.7812 12.2708 13.0312 11.3125 11.8438C10.3542 10.6458 8.95312 10.0469 7.10938 10.0469H4.79688ZM33.4219 24.3125H25.2031L23.6406 29H18.6562L27.125 6.25H31.4688L39.9844 29H35L33.4219 24.3125ZM26.4688 20.5156H32.1562L29.2969 12L26.4688 20.5156ZM60.6094 29H55.9219L46.7969 14.0312V29H42.1094V6.25H46.7969L55.9375 21.25V6.25H60.6094V29ZM64.6406 26.7812C64.6406 26.0625 64.8802 25.4792 65.3594 25.0312C65.849 24.5833 66.4583 24.3594 67.1875 24.3594C67.9271 24.3594 68.5365 24.5833 69.0156 25.0312C69.5052 25.4792 69.75 26.0625 69.75 26.7812C69.75 27.4896 69.5104 28.0677 69.0312 28.5156C68.5521 28.9531 67.9375 29.1719 67.1875 29.1719C66.4479 29.1719 65.8385 28.9531 65.3594 28.5156C64.8802 28.0677 64.6406 27.4896 64.6406 26.7812ZM74.0156 29V6.25H81.0156C83.0156 6.25 84.8021 6.70312 86.375 7.60938C87.9583 8.50521 89.1927 9.78646 90.0781 11.4531C90.9635 13.1094 91.4062 14.9948 91.4062 17.1094V18.1562C91.4062 20.2708 90.9688 22.151 90.0938 23.7969C89.2292 25.4427 88.0052 26.7188 86.4219 27.625C84.8385 28.5312 83.0521 28.9896 81.0625 29H74.0156ZM78.7031 10.0469V25.2344H80.9688C82.8021 25.2344 84.2031 24.6354 85.1719 23.4375C86.1406 22.2396 86.6354 20.526 86.6562 18.2969V17.0938C86.6562 14.7812 86.1771 13.0312 85.2188 11.8438C84.2604 10.6458 82.8594 10.0469 81.0156 10.0469H78.7031ZM108.516 19.1406H99.5156V25.2344H110.078V29H94.8281V6.25H110.047V10.0469H99.5156V15.4688H108.516V19.1406ZM121.234 23.3594L126.391 6.25H131.609L123.688 29H118.797L110.906 6.25H116.109L121.234 23.3594ZM130.328 26.7812C130.328 26.0625 130.568 25.4792 131.047 25.0312C131.536 24.5833 132.146 24.3594 132.875 24.3594C133.615 24.3594 134.224 24.5833 134.703 25.0312C135.193 25.4792 135.438 26.0625 135.438 26.7812C135.438 27.4896 135.198 28.0677 134.719 28.5156C134.24 28.9531 133.625 29.1719 132.875 29.1719C132.135 29.1719 131.526 28.9531 131.047 28.5156C130.568 28.0677 130.328 27.4896 130.328 26.7812ZM144.391 25.2344H154.344V29H139.703V6.25H144.391V25.2344ZM174.734 18.1406C174.734 20.3802 174.339 22.3438 173.547 24.0312C172.755 25.7188 171.62 27.0208 170.141 27.9375C168.672 28.8542 166.984 29.3125 165.078 29.3125C163.193 29.3125 161.51 28.8594 160.031 27.9531C158.552 27.0469 157.406 25.7552 156.594 24.0781C155.781 22.3906 155.37 20.4531 155.359 18.2656V17.1406C155.359 14.901 155.76 12.9323 156.562 11.2344C157.375 9.52604 158.516 8.21875 159.984 7.3125C161.464 6.39583 163.151 5.9375 165.047 5.9375C166.943 5.9375 168.625 6.39583 170.094 7.3125C171.573 8.21875 172.714 9.52604 173.516 11.2344C174.328 12.9323 174.734 14.8958 174.734 17.125V18.1406ZM169.984 17.1094C169.984 14.724 169.557 12.9115 168.703 11.6719C167.849 10.4323 166.63 9.8125 165.047 9.8125C163.474 9.8125 162.26 10.4271 161.406 11.6562C160.552 12.875 160.12 14.6667 160.109 17.0312V18.1406C160.109 20.4635 160.536 22.2656 161.391 23.5469C162.245 24.8281 163.474 25.4688 165.078 25.4688C166.651 25.4688 167.859 24.8542 168.703 23.625C169.547 22.3854 169.974 20.5833 169.984 18.2188V17.1094ZM196.141 26.125C195.297 27.1354 194.104 27.9219 192.562 28.4844C191.021 29.0365 189.312 29.3125 187.438 29.3125C185.469 29.3125 183.74 28.8854 182.25 28.0312C180.771 27.1667 179.625 25.9167 178.812 24.2812C178.01 22.6458 177.599 20.724 177.578 18.5156V16.9688C177.578 14.6979 177.958 12.7344 178.719 11.0781C179.49 9.41146 180.594 8.14062 182.031 7.26562C183.479 6.38021 185.172 5.9375 187.109 5.9375C189.807 5.9375 191.917 6.58333 193.438 7.875C194.958 9.15625 195.859 11.026 196.141 13.4844H191.578C191.37 12.1823 190.906 11.2292 190.188 10.625C189.479 10.0208 188.5 9.71875 187.25 9.71875C185.656 9.71875 184.443 10.3177 183.609 11.5156C182.776 12.7135 182.354 14.4948 182.344 16.8594V18.3125C182.344 20.6979 182.797 22.5 183.703 23.7188C184.609 24.9375 185.938 25.5469 187.688 25.5469C189.448 25.5469 190.703 25.1719 191.453 24.4219V20.5H187.188V17.0469H196.141V26.125Z" fill="#7886B7"/>
<path d="M0.109375 29H-0.140625V29.25H0.109375V29ZM0.109375 6.25V6H-0.140625V6.25H0.109375ZM12.4688 7.60938L12.3439 7.826L12.3456 7.82696L12.4688 7.60938ZM16.1719 11.4531L15.9511 11.5704L15.9514 11.571L16.1719 11.4531ZM16.1875 23.7969L15.9668 23.6795L15.9662 23.6806L16.1875 23.7969ZM7.15625 29L7.15625 29.25L7.15756 29.25L7.15625 29ZM4.79688 10.0469V9.79688H4.54688V10.0469H4.79688ZM4.79688 25.2344H4.54688V25.4844H4.79688V25.2344ZM12.75 18.2969L13 18.2992V18.2969H12.75ZM11.3125 11.8438L11.1173 11.9999L11.118 12.0008L11.3125 11.8438ZM0.359375 29V6.25H-0.140625V29H0.359375ZM0.109375 6.5H7.10938V6H0.109375V6.5ZM7.10938 6.5C9.07014 6.5 10.8128 6.94379 12.3439 7.82599L12.5936 7.39276C10.9789 6.46246 9.14861 6 7.10938 6V6.5ZM12.3456 7.82696C13.8859 8.69844 15.0871 9.94414 15.9511 11.5704L16.3927 11.3358C15.4858 9.62877 14.2182 8.31198 12.5919 7.39179L12.3456 7.82696ZM15.9514 11.571C16.8151 13.1866 17.25 15.0307 17.25 17.1094H17.75C17.75 14.9589 17.2995 13.0321 16.3923 11.3353L15.9514 11.571ZM17.25 17.1094V18.1562H17.75V17.1094H17.25ZM17.25 18.1562C17.25 20.2355 16.8201 22.0744 15.9668 23.6795L16.4082 23.9142C17.3049 22.2277 17.75 20.3062 17.75 18.1562H17.25ZM15.9662 23.6806C15.1233 25.2852 13.9326 26.5259 12.3914 27.408L12.6398 27.842C14.2653 26.9116 15.5226 25.6003 16.4088 23.9131L15.9662 23.6806ZM12.3914 27.408C10.8489 28.2909 9.10542 28.7398 7.15494 28.75L7.15756 29.25C9.18625 29.2394 11.0157 28.7716 12.6398 27.842L12.3914 27.408ZM7.15625 28.75H0.109375V29.25H7.15625V28.75ZM4.54688 10.0469V25.2344H5.04688V10.0469H4.54688ZM4.79688 25.4844H7.0625V24.9844H4.79688V25.4844ZM7.0625 25.4844C8.95537 25.4844 10.4346 24.8627 11.46 23.5947L11.0712 23.2803C10.1591 24.4082 8.8363 24.9844 7.0625 24.9844V25.4844ZM11.46 23.5947C12.4771 22.3371 12.9789 20.5603 13 18.2992L12.5 18.2945C12.4795 20.4918 11.9917 22.1421 11.0712 23.2803L11.46 23.5947ZM13 18.2969V17.0938H12.5V18.2969H13ZM13 17.0938C13 14.7522 12.5156 12.9365 11.507 11.6867L11.118 12.0008C12.026 13.126 12.5 14.8103 12.5 17.0938H13ZM11.5077 11.6876C10.4922 10.4182 9.01205 9.79688 7.10938 9.79688V10.2969C8.8942 10.2969 10.2161 10.8734 11.1173 11.9999L11.5077 11.6876ZM7.10938 9.79688H4.79688V10.2969H7.10938V9.79688ZM33.4219 24.3125L33.6588 24.2327L33.6015 24.0625H33.4219V24.3125ZM25.2031 24.3125V24.0625H25.0229L24.966 24.2334L25.2031 24.3125ZM23.6406 29V29.25H23.8208L23.8778 29.0791L23.6406 29ZM18.6562 29L18.422 28.9128L18.2964 29.25H18.6562V29ZM27.125 6.25V6H26.9513L26.8907 6.16278L27.125 6.25ZM31.4688 6.25L31.7029 6.16236L31.6421 6H31.4688V6.25ZM39.9844 29V29.25H40.3449L40.2185 28.9124L39.9844 29ZM35 29L34.7631 29.0798L34.8204 29.25H35V29ZM26.4688 20.5156L26.2315 20.4368L26.1223 20.7656H26.4688V20.5156ZM32.1562 20.5156V20.7656H32.5039L32.3932 20.436L32.1562 20.5156ZM29.2969 12L29.5339 11.9204L29.2956 11.2107L29.0596 11.9212L29.2969 12ZM33.4219 24.0625H25.2031V24.5625H33.4219V24.0625ZM24.966 24.2334L23.4035 28.9209L23.8778 29.0791L25.4403 24.3916L24.966 24.2334ZM23.6406 28.75H18.6562V29.25H23.6406V28.75ZM18.8905 29.0872L27.3593 6.33722L26.8907 6.16278L18.422 28.9128L18.8905 29.0872ZM27.125 6.5H31.4688V6H27.125V6.5ZM31.2346 6.33764L39.7502 29.0876L40.2185 28.9124L31.7029 6.16236L31.2346 6.33764ZM39.9844 28.75H35V29.25H39.9844V28.75ZM35.2369 28.9202L33.6588 24.2327L33.1849 24.3923L34.7631 29.0798L35.2369 28.9202ZM26.4688 20.7656H32.1562V20.2656H26.4688V20.7656ZM32.3932 20.436L29.5339 11.9204L29.0599 12.0796L31.9193 20.5952L32.3932 20.436ZM29.0596 11.9212L26.2315 20.4368L26.706 20.5944L29.5341 12.0788L29.0596 11.9212ZM60.6094 29V29.25H60.8594V29H60.6094ZM55.9219 29L55.7084 29.1301L55.7815 29.25H55.9219V29ZM46.7969 14.0312L47.0103 13.9011L46.5469 13.1409V14.0312H46.7969ZM46.7969 29V29.25H47.0469V29H46.7969ZM42.1094 29H41.8594V29.25H42.1094V29ZM42.1094 6.25V6H41.8594V6.25H42.1094ZM46.7969 6.25L47.0104 6.11991L46.9373 6H46.7969V6.25ZM55.9375 21.25L55.724 21.3801L56.1875 22.1407V21.25H55.9375ZM55.9375 6.25V6H55.6875V6.25H55.9375ZM60.6094 6.25H60.8594V6H60.6094V6.25ZM60.6094 28.75H55.9219V29.25H60.6094V28.75ZM56.1353 28.8699L47.0103 13.9011L46.5834 14.1614L55.7084 29.1301L56.1353 28.8699ZM46.5469 14.0312V29H47.0469V14.0312H46.5469ZM46.7969 28.75H42.1094V29.25H46.7969V28.75ZM42.3594 29V6.25H41.8594V29H42.3594ZM42.1094 6.5H46.7969V6H42.1094V6.5ZM46.5834 6.38009L55.724 21.3801L56.151 21.1199L47.0104 6.11991L46.5834 6.38009ZM56.1875 21.25V6.25H55.6875V21.25H56.1875ZM55.9375 6.5H60.6094V6H55.9375V6.5ZM60.3594 6.25V29H60.8594V6.25H60.3594ZM65.3594 25.0312L65.1906 24.8468L65.1887 24.8486L65.3594 25.0312ZM69.0156 25.0312L68.8449 25.2139L68.8469 25.2157L69.0156 25.0312ZM69.0312 28.5156L69.1998 28.7003L69.202 28.6983L69.0312 28.5156ZM65.3594 28.5156L65.1886 28.6983L65.1908 28.7002L65.3594 28.5156ZM64.8906 26.7812C64.8906 26.1244 65.1066 25.6097 65.5301 25.2139L65.1887 24.8486C64.6538 25.3486 64.3906 26.0006 64.3906 26.7812H64.8906ZM65.5281 25.2157C65.9669 24.8143 66.5141 24.6094 67.1875 24.6094V24.1094C66.4026 24.1094 65.731 24.3524 65.1906 24.8468L65.5281 25.2157ZM67.1875 24.6094C67.8724 24.6094 68.4181 24.8149 68.8449 25.2139L69.1863 24.8486C68.6549 24.3518 67.9817 24.1094 67.1875 24.1094V24.6094ZM68.8469 25.2157C69.2801 25.612 69.5 26.1261 69.5 26.7812H70C70 25.9989 69.7304 25.3463 69.1844 24.8468L68.8469 25.2157ZM69.5 26.7812C69.5 27.4265 69.2848 27.9364 68.8605 28.333L69.202 28.6983C69.7361 28.199 70 27.5526 70 26.7812H69.5ZM68.8627 28.331C68.4367 28.7199 67.8855 28.9219 67.1875 28.9219V29.4219C67.9895 29.4219 68.6675 29.1863 69.1998 28.7002L68.8627 28.331ZM67.1875 28.9219C66.5009 28.9219 65.9546 28.7205 65.5279 28.331L65.1908 28.7002C65.7225 29.1857 66.3949 29.4219 67.1875 29.4219V28.9219ZM65.5301 28.333C65.1058 27.9364 64.8906 27.4265 64.8906 26.7812H64.3906C64.3906 27.5526 64.6546 28.199 65.1887 28.6983L65.5301 28.333ZM74.0156 29H73.7656V29.25H74.0156V29ZM74.0156 6.25V6H73.7656V6.25H74.0156ZM86.375 7.60938L86.2502 7.826L86.2519 7.82696L86.375 7.60938ZM90.0781 11.4531L89.8573 11.5704L89.8577 11.571L90.0781 11.4531ZM90.0938 23.7969L89.873 23.6795L89.8724 23.6806L90.0938 23.7969ZM81.0625 29V29.25L81.0638 29.25L81.0625 29ZM78.7031 10.0469V9.79688H78.4531V10.0469H78.7031ZM78.7031 25.2344H78.4531V25.4844H78.7031V25.2344ZM86.6562 18.2969L86.9062 18.2992V18.2969H86.6562ZM85.2188 11.8438L85.0235 11.9999L85.0242 12.0008L85.2188 11.8438ZM74.2656 29V6.25H73.7656V29H74.2656ZM74.0156 6.5H81.0156V6H74.0156V6.5ZM81.0156 6.5C82.9764 6.5 84.719 6.94379 86.2502 7.82599L86.4998 7.39276C84.8852 6.46246 83.0549 6 81.0156 6V6.5ZM86.2519 7.82696C87.7922 8.69844 88.9934 9.94414 89.8573 11.5704L90.2989 11.3358C89.392 9.62877 88.1245 8.31198 86.4981 7.39179L86.2519 7.82696ZM89.8577 11.571C90.7214 13.1866 91.1562 15.0307 91.1562 17.1094H91.6562C91.6562 14.9589 91.2057 13.0321 90.2986 11.3353L89.8577 11.571ZM91.1562 17.1094V18.1562H91.6562V17.1094H91.1562ZM91.1562 18.1562C91.1562 20.2355 90.7263 22.0744 89.873 23.6795L90.3145 23.9142C91.2112 22.2277 91.6562 20.3062 91.6562 18.1562H91.1562ZM89.8724 23.6806C89.0295 25.2852 87.8389 26.5259 86.2977 27.408L86.5461 27.842C88.1715 26.9116 89.4288 25.6003 90.3151 23.9131L89.8724 23.6806ZM86.2977 27.408C84.7551 28.2909 83.0117 28.7398 81.0612 28.75L81.0638 29.25C83.0925 29.2394 84.922 28.7716 86.5461 27.842L86.2977 27.408ZM81.0625 28.75H74.0156V29.25H81.0625V28.75ZM78.4531 10.0469V25.2344H78.9531V10.0469H78.4531ZM78.7031 25.4844H80.9688V24.9844H78.7031V25.4844ZM80.9688 25.4844C82.8616 25.4844 84.3409 24.8627 85.3663 23.5947L84.9775 23.2803C84.0654 24.4082 82.7425 24.9844 80.9688 24.9844V25.4844ZM85.3663 23.5947C86.3833 22.3371 86.8851 20.5603 86.9062 18.2992L86.4063 18.2945C86.3857 20.4918 85.8979 22.1421 84.9775 23.2803L85.3663 23.5947ZM86.9062 18.2969V17.0938H86.4062V18.2969H86.9062ZM86.9062 17.0938C86.9062 14.7522 86.4219 12.9365 85.4133 11.6867L85.0242 12.0008C85.9323 13.126 86.4062 14.8103 86.4062 17.0938H86.9062ZM85.414 11.6876C84.3985 10.4182 82.9183 9.79688 81.0156 9.79688V10.2969C82.8005 10.2969 84.1223 10.8734 85.0235 11.9999L85.414 11.6876ZM81.0156 9.79688H78.7031V10.2969H81.0156V9.79688ZM108.516 19.1406V19.3906H108.766V19.1406H108.516ZM99.5156 19.1406V18.8906H99.2656V19.1406H99.5156ZM99.5156 25.2344H99.2656V25.4844H99.5156V25.2344ZM110.078 25.2344H110.328V24.9844H110.078V25.2344ZM110.078 29V29.25H110.328V29H110.078ZM94.8281 29H94.5781V29.25H94.8281V29ZM94.8281 6.25V6H94.5781V6.25H94.8281ZM110.047 6.25H110.297V6H110.047V6.25ZM110.047 10.0469V10.2969H110.297V10.0469H110.047ZM99.5156 10.0469V9.79688H99.2656V10.0469H99.5156ZM99.5156 15.4688H99.2656V15.7188H99.5156V15.4688ZM108.516 15.4688H108.766V15.2188H108.516V15.4688ZM108.516 18.8906H99.5156V19.3906H108.516V18.8906ZM99.2656 19.1406V25.2344H99.7656V19.1406H99.2656ZM99.5156 25.4844H110.078V24.9844H99.5156V25.4844ZM109.828 25.2344V29H110.328V25.2344H109.828ZM110.078 28.75H94.8281V29.25H110.078V28.75ZM95.0781 29V6.25H94.5781V29H95.0781ZM94.8281 6.5H110.047V6H94.8281V6.5ZM109.797 6.25V10.0469H110.297V6.25H109.797ZM110.047 9.79688H99.5156V10.2969H110.047V9.79688ZM99.2656 10.0469V15.4688H99.7656V10.0469H99.2656ZM99.5156 15.7188H108.516V15.2188H99.5156V15.7188ZM108.266 15.4688V19.1406H108.766V15.4688H108.266ZM121.234 23.3594L120.995 23.4311L121.234 24.2282L121.474 23.4315L121.234 23.3594ZM126.391 6.25V6H126.205L126.151 6.17786L126.391 6.25ZM131.609 6.25L131.845 6.33221L131.961 6H131.609V6.25ZM123.688 29V29.25H123.865L123.924 29.0822L123.688 29ZM118.797 29L118.561 29.0819L118.619 29.25H118.797V29ZM110.906 6.25V6H110.555L110.67 6.33192L110.906 6.25ZM116.109 6.25L116.349 6.17826L116.295 6H116.109V6.25ZM121.474 23.4315L126.63 6.32214L126.151 6.17786L120.995 23.2872L121.474 23.4315ZM126.391 6.5H131.609V6H126.391V6.5ZM131.373 6.16779L123.451 28.9178L123.924 29.0822L131.845 6.33221L131.373 6.16779ZM123.688 28.75H118.797V29.25H123.688V28.75ZM119.033 28.9181L111.142 6.16808L110.67 6.33192L118.561 29.0819L119.033 28.9181ZM110.906 6.5H116.109V6H110.906V6.5ZM115.87 6.32174L120.995 23.4311L121.474 23.2876L116.349 6.17826L115.87 6.32174ZM131.047 25.0312L130.878 24.8468L130.876 24.8486L131.047 25.0312ZM134.703 25.0312L134.532 25.2139L134.534 25.2157L134.703 25.0312ZM134.719 28.5156L134.887 28.7003L134.889 28.6983L134.719 28.5156ZM131.047 28.5156L130.876 28.6983L130.878 28.7002L131.047 28.5156ZM130.578 26.7812C130.578 26.1244 130.794 25.6097 131.218 25.2139L130.876 24.8486C130.341 25.3486 130.078 26.0006 130.078 26.7812H130.578ZM131.216 25.2157C131.654 24.8143 132.202 24.6094 132.875 24.6094V24.1094C132.09 24.1094 131.419 24.3524 130.878 24.8468L131.216 25.2157ZM132.875 24.6094C133.56 24.6094 134.106 24.8149 134.532 25.2139L134.874 24.8486C134.342 24.3518 133.669 24.1094 132.875 24.1094V24.6094ZM134.534 25.2157C134.968 25.612 135.188 26.1261 135.188 26.7812H135.688C135.688 25.9989 135.418 25.3463 134.872 24.8468L134.534 25.2157ZM135.188 26.7812C135.188 27.4265 134.972 27.9364 134.548 28.333L134.889 28.6983C135.424 28.199 135.688 27.5526 135.688 26.7812H135.188ZM134.55 28.331C134.124 28.7199 133.573 28.9219 132.875 28.9219V29.4219C133.677 29.4219 134.355 29.1863 134.887 28.7002L134.55 28.331ZM132.875 28.9219C132.188 28.9219 131.642 28.7205 131.215 28.331L130.878 28.7002C131.41 29.1857 132.082 29.4219 132.875 29.4219V28.9219ZM131.218 28.333C130.793 27.9364 130.578 27.4265 130.578 26.7812H130.078C130.078 27.5526 130.342 28.199 130.876 28.6983L131.218 28.333ZM144.391 25.2344H144.141V25.4844H144.391V25.2344ZM154.344 25.2344H154.594V24.9844H154.344V25.2344ZM154.344 29V29.25H154.594V29H154.344ZM139.703 29H139.453V29.25H139.703V29ZM139.703 6.25V6H139.453V6.25H139.703ZM144.391 6.25H144.641V6H144.391V6.25ZM144.391 25.4844H154.344V24.9844H144.391V25.4844ZM154.094 25.2344V29H154.594V25.2344H154.094ZM154.344 28.75H139.703V29.25H154.344V28.75ZM139.953 29V6.25H139.453V29H139.953ZM139.703 6.5H144.391V6H139.703V6.5ZM144.141 6.25V25.2344H144.641V6.25H144.141ZM170.141 27.9375L170.009 27.725L170.008 27.7254L170.141 27.9375ZM156.594 24.0781L156.368 24.1866L156.369 24.1871L156.594 24.0781ZM155.359 18.2656L155.109 18.2656L155.109 18.2668L155.359 18.2656ZM156.562 11.2344L156.337 11.127L156.336 11.1276L156.562 11.2344ZM159.984 7.3125L160.116 7.52526L160.116 7.525L159.984 7.3125ZM170.094 7.3125L169.961 7.52459L169.963 7.52567L170.094 7.3125ZM173.516 11.2344L173.289 11.3406L173.29 11.3423L173.516 11.2344ZM161.406 11.6562L161.611 11.7997L161.612 11.7989L161.406 11.6562ZM160.109 17.0312L159.859 17.0301V17.0312H160.109ZM168.703 23.625L168.909 23.7665L168.91 23.7657L168.703 23.625ZM169.984 18.2188L170.234 18.2199V18.2188H169.984ZM174.484 18.1406C174.484 20.3508 174.094 22.2768 173.321 23.9251L173.773 24.1374C174.583 22.4107 174.984 20.4096 174.984 18.1406H174.484ZM173.321 23.9251C172.548 25.572 171.444 26.8357 170.009 27.725L170.272 28.15C171.796 27.206 172.962 25.8655 173.773 24.1374L173.321 23.9251ZM170.008 27.7254C168.583 28.6148 166.942 29.0625 165.078 29.0625V29.5625C167.026 29.5625 168.761 29.0935 170.273 28.1496L170.008 27.7254ZM165.078 29.0625C163.235 29.0625 161.598 28.62 160.162 27.74L159.901 28.1663C161.423 29.0987 163.151 29.5625 165.078 29.5625V29.0625ZM160.162 27.74C158.727 26.8606 157.612 25.6065 156.819 23.9691L156.369 24.1871C157.2 25.9039 158.378 27.2332 159.901 28.1663L160.162 27.74ZM156.819 23.9697C156.025 22.3208 155.62 20.421 155.609 18.2644L155.109 18.2668C155.12 20.4853 155.537 22.4604 156.368 24.1866L156.819 23.9697ZM155.609 18.2656V17.1406H155.109V18.2656H155.609ZM155.609 17.1406C155.609 14.9309 156.005 12.9999 156.789 11.3412L156.336 11.1276C155.516 12.8647 155.109 14.8711 155.109 17.1406H155.609ZM156.788 11.3418C157.582 9.67257 158.692 8.4038 160.116 7.52526L159.853 7.09974C158.339 8.0337 157.168 9.37951 156.337 11.127L156.788 11.3418ZM160.116 7.525C161.552 6.63502 163.193 6.1875 165.047 6.1875V5.6875C163.109 5.6875 161.375 6.15664 159.853 7.1L160.116 7.525ZM165.047 6.1875C166.901 6.1875 168.536 6.63503 169.961 7.52458L170.226 7.10042C168.714 6.15664 166.985 5.6875 165.047 5.6875V6.1875ZM169.963 7.52567C171.397 8.40415 172.506 9.67246 173.289 11.3406L173.742 11.1281C172.921 9.37962 171.749 8.03335 170.224 7.09933L169.963 7.52567ZM173.29 11.3423C174.084 13.0009 174.484 14.9264 174.484 17.125H174.984C174.984 14.8653 174.572 12.8637 173.741 11.1265L173.29 11.3423ZM174.484 17.125V18.1406H174.984V17.125H174.484ZM170.234 17.1094C170.234 14.7006 169.804 12.8292 168.909 11.53L168.497 11.8137C169.31 12.9937 169.734 14.7473 169.734 17.1094H170.234ZM168.909 11.53C168.005 10.2187 166.707 9.5625 165.047 9.5625V10.0625C166.553 10.0625 167.693 10.6459 168.497 11.8137L168.909 11.53ZM165.047 9.5625C163.397 9.5625 162.105 10.2132 161.201 11.5136L161.612 11.7989C162.416 10.6409 163.551 10.0625 165.047 10.0625V9.5625ZM161.202 11.5128C160.305 12.7913 159.87 14.6422 159.859 17.0301L160.359 17.0324C160.37 14.6911 160.799 12.9587 161.611 11.7997L161.202 11.5128ZM159.859 17.0312V18.1406H160.359V17.0312H159.859ZM159.859 18.1406C159.859 20.4894 160.29 22.3473 161.183 23.6856L161.599 23.4082C160.782 22.184 160.359 20.4377 160.359 18.1406H159.859ZM161.183 23.6856C162.085 25.0398 163.395 25.7188 165.078 25.7188V25.2188C163.553 25.2188 162.404 24.6165 161.599 23.4082L161.183 23.6856ZM165.078 25.7188C166.728 25.7188 168.016 25.0679 168.909 23.7665L168.497 23.4835C167.703 24.6404 166.574 25.2188 165.078 25.2188V25.7188ZM168.91 23.7657C169.793 22.4674 170.224 20.6078 170.234 18.2199L169.734 18.2176C169.724 20.5589 169.3 22.3034 168.496 23.4843L168.91 23.7657ZM170.234 18.2188V17.1094H169.734V18.2188H170.234ZM196.141 26.125L196.333 26.2852L196.391 26.2157V26.125H196.141ZM192.562 28.4844L192.647 28.7197L192.648 28.7192L192.562 28.4844ZM182.25 28.0312L182.124 28.2471L182.126 28.2481L182.25 28.0312ZM178.812 24.2812L178.588 24.3913L178.589 24.3925L178.812 24.2812ZM177.578 18.5156L177.328 18.5156L177.328 18.518L177.578 18.5156ZM178.719 11.0781L178.492 10.9732L178.492 10.9738L178.719 11.0781ZM182.031 7.26562L182.161 7.47918L182.162 7.47891L182.031 7.26562ZM193.438 7.875L193.276 8.06555L193.276 8.06619L193.438 7.875ZM196.141 13.4844V13.7344H196.421L196.389 13.456L196.141 13.4844ZM191.578 13.4844L191.331 13.5239L191.365 13.7344H191.578V13.4844ZM190.188 10.625L190.025 10.8152L190.027 10.8164L190.188 10.625ZM183.609 11.5156L183.404 11.3729L183.609 11.5156ZM182.344 16.8594L182.094 16.8583V16.8594H182.344ZM191.453 24.4219L191.63 24.5987L191.703 24.5254V24.4219H191.453ZM191.453 20.5H191.703V20.25H191.453V20.5ZM187.188 20.5H186.938V20.75H187.188V20.5ZM187.188 17.0469V16.7969H186.938V17.0469H187.188ZM196.141 17.0469H196.391V16.7969H196.141V17.0469ZM195.949 25.9648C195.139 26.934 193.987 27.6984 192.477 28.2495L192.648 28.7192C194.221 28.1453 195.454 27.3368 196.333 26.2852L195.949 25.9648ZM192.478 28.249C190.967 28.7901 189.288 29.0625 187.438 29.0625V29.5625C189.337 29.5625 191.074 29.2828 192.647 28.7197L192.478 28.249ZM187.438 29.0625C185.506 29.0625 183.821 28.6438 182.374 27.8144L182.126 28.2481C183.658 29.127 185.432 29.5625 187.438 29.5625V29.0625ZM182.376 27.8154C180.942 26.9771 179.829 25.7648 179.036 24.17L178.589 24.3925C179.421 26.0685 180.6 27.3563 182.124 28.2471L182.376 27.8154ZM179.037 24.1712C178.254 22.5757 177.849 20.692 177.828 18.5133L177.328 18.518C177.349 20.7559 177.766 22.716 178.588 24.3913L179.037 24.1712ZM177.828 18.5156V16.9688H177.328V18.5156H177.828ZM177.828 16.9688C177.828 14.7253 178.204 12.7989 178.946 11.1824L178.492 10.9738C177.713 12.6698 177.328 14.6705 177.328 16.9688H177.828ZM178.946 11.1831C179.698 9.55713 180.77 8.32604 182.161 7.47917L181.901 7.05208C180.418 7.95521 179.282 9.26579 178.492 10.9732L178.946 11.1831ZM182.162 7.47891C183.565 6.62075 185.211 6.1875 187.109 6.1875V5.6875C185.133 5.6875 183.393 6.13966 181.901 7.05234L182.162 7.47891ZM187.109 6.1875C189.769 6.1875 191.814 6.82394 193.276 8.06555L193.599 7.68445C192.02 6.34273 189.846 5.6875 187.109 5.6875V6.1875ZM193.276 8.06619C194.737 9.29687 195.616 11.1016 195.892 13.5128L196.389 13.456C196.102 10.9505 195.179 9.01563 193.599 7.68381L193.276 8.06619ZM196.141 13.2344H191.578V13.7344H196.141V13.2344ZM191.825 13.4449C191.611 12.1073 191.129 11.0896 190.348 10.4336L190.027 10.8164C190.684 11.3688 191.129 12.2573 191.331 13.5239L191.825 13.4449ZM190.35 10.4348C189.583 9.78053 188.539 9.46875 187.25 9.46875V9.96875C188.461 9.96875 189.376 10.2611 190.025 10.8152L190.35 10.4348ZM187.25 9.46875C185.583 9.46875 184.289 10.1008 183.404 11.3729L183.815 11.6584C184.596 10.5346 185.729 9.96875 187.25 9.96875V9.46875ZM183.404 11.3729C182.529 12.6309 182.104 14.4717 182.094 16.8583L182.594 16.8605C182.604 14.5179 183.023 12.7961 183.815 11.6584L183.404 11.3729ZM182.094 16.8594V18.3125H182.594V16.8594H182.094ZM182.094 18.3125C182.094 20.7231 182.551 22.5877 183.503 23.8679L183.904 23.5696C183.043 22.4123 182.594 20.6728 182.594 18.3125H182.094ZM183.503 23.8679C184.464 25.1604 185.872 25.7969 187.688 25.7969V25.2969C186.003 25.2969 184.755 24.7146 183.904 23.5696L183.503 23.8679ZM187.688 25.7969C189.473 25.7969 190.81 25.4184 191.63 24.5987L191.276 24.2451C190.596 24.9254 189.423 25.2969 187.688 25.2969V25.7969ZM191.703 24.4219V20.5H191.203V24.4219H191.703ZM191.453 20.25H187.188V20.75H191.453V20.25ZM187.438 20.5V17.0469H186.938V20.5H187.438ZM187.188 17.2969H196.141V16.7969H187.188V17.2969ZM195.891 17.0469V26.125H196.391V17.0469H195.891Z" fill="#F2F2F2"/>
</g>
<defs>
<clipPath id="clip0">
<rect width="285" height="31" fill="white"/>
</clipPath>
</defs>
</svg>
